<?xml version="1.0" encoding="UTF-8" standalone="no"?>
<svg width="213px" height="213px" viewBox="0 0 213 213" version="1.1" xmlns="http://www.w3.org/2000/svg" xmlns:xlink="http://www.w3.org/1999/xlink">
    <defs>
        <path id="path-1" d="M0.0767,213 L161.593,213 L161.593,0.757 L80.83485,0.757 L0.0767,0.757 L0.0767,213 L0.0767,213 Z"></path>
    </defs>
    <g id="Page-1" stroke="none" stroke-width="1" fill="none" fill-rule="evenodd">
        <g id="Group" transform="translate(0.000000, -1.000000)">
            <g id="Group-3" transform="translate(26.000000, 0.000000)">
                <mask id="mask-2" fill="white">
                    <use xlink:href="#path-1"></use>
                </mask>
                <g id="Clip-2"></g>
                <path fill="white" d="M25.9627,46.805 C28.7507,44.266 32.0357,44.117 35.7697,46.357 C32.5337,49.244 29.2487,49.394 25.9627,46.805 M22.8267,36.55 L27.7047,36.55 L44.1827,36.55 L49.0607,36.55 C49.1107,35.704 49.1107,34.409 49.5087,32.966 C50.8037,28.784 54.5867,26.046 58.5197,24.553 C53.7907,19.674 45.7757,22.263 45.7757,27.589 L45.7757,27.639 L45.7757,27.789 L45.7757,27.838 L45.7757,27.888 L45.7757,27.938 L45.7757,27.988 L45.7257,28.087 L45.7257,28.137 C45.7257,28.187 45.7257,28.237 45.6757,28.286 L45.6757,28.336 L45.6757,28.386 L45.6267,28.535 L45.5767,28.535 L45.5767,28.585 L45.5767,28.635 L45.5267,28.685 C45.5267,28.734 45.4767,28.784 45.4767,28.834 L45.4267,28.884 L45.4267,28.934 L45.3777,28.983 L45.3277,29.033 L45.2777,29.133 L45.2277,29.182 L45.1787,29.232 L45.1787,29.282 L45.1287,29.282 L45.1287,29.332 L45.0787,29.332 L45.0787,29.382 L45.0287,29.431 L44.9787,29.431 L44.9787,29.481 L44.9297,29.531 L44.8797,29.531 L44.8797,29.581 L44.8297,29.581 L44.7797,29.631 L44.7307,29.68 L44.6807,29.73 L44.6307,29.73 L44.6307,29.78 L44.5807,29.78 L44.5307,29.83 L44.4817,29.879 L44.4317,29.879 L44.3817,29.879 L44.3817,29.929 L44.3317,29.929 L44.2817,29.929 L44.2817,29.979 L44.2327,29.979 L44.1827,30.029 C43.8337,30.178 43.4357,30.278 43.0377,30.278 C39.2547,30.278 39.4537,24.702 43.1367,24.901 C43.6347,19.276 35.9187,14.995 35.9187,14.995 C35.9187,14.995 28.3027,19.027 28.7507,24.901 L28.8497,24.901 C30.3937,24.901 31.6377,26.096 31.6377,27.589 C31.6377,29.033 30.3937,30.278 28.8497,30.278 C28.4517,30.278 28.0537,30.178 27.7047,30.029 L27.6557,29.979 L27.6057,29.979 L27.5557,29.929 L27.5057,29.929 L27.4557,29.879 L27.4067,29.879 L27.3567,29.83 L27.3067,29.83 L27.3067,29.78 L27.2567,29.78 L27.2567,29.73 L27.2077,29.73 L27.1577,29.68 L27.1077,29.68 L27.1077,29.631 L27.0577,29.581 L27.0077,29.581 L26.9587,29.531 L26.9087,29.481 L26.8587,29.431 L26.8087,29.382 L26.7587,29.332 L26.7587,29.282 L26.7097,29.282 L26.6597,29.232 L26.6597,29.182 L26.6097,29.133 L26.5597,29.083 L26.5597,29.033 L26.5107,29.033 L26.5107,28.983 L26.4607,28.884 L26.4107,28.834 L26.4107,28.784 L26.3607,28.734 L26.3607,28.685 L26.3107,28.685 L26.3107,28.635 L26.2617,28.535 L26.2617,28.486 L26.2117,28.436 L26.2117,28.386 L26.2117,28.336 L26.2117,28.286 L26.1617,28.237 L26.1617,28.187 L26.1617,28.137 L26.1617,28.087 L26.1117,28.087 L26.1117,28.037 L26.1117,27.988 L26.1117,27.938 L26.1117,27.888 L26.1117,27.838 L26.1117,27.789 L26.1117,27.739 L26.1117,27.689 L26.1117,27.639 L26.0627,27.639 L26.0627,27.589 C26.0627,22.263 18.0477,19.674 13.3677,24.553 C18.3457,26.444 23.0257,30.327 22.8267,36.55 M50.1567,101.763 C59.0667,98.378 63.3977,91.708 63.1987,81.602 C68.0277,93.749 64.6927,102.809 53.1927,108.783 C51.7987,106.99 50.8037,104.651 50.1567,101.763 M112.9307,0.757 C113.3287,6.233 111.3377,12.406 108.1017,18.181 L64.0457,53.426 C61.9547,48.298 62.2527,42.424 69.3217,35.754 C88.8857,20.272 90.5287,19.575 112.9307,0.757 M143.1977,73.438 C146.2337,89.467 135.8297,96.686 129.9557,101.664 C121.6917,102.361 114.6727,104.004 108.3007,106.045 C111.9847,96.487 119.4517,93.898 126.3217,88.522 C142.4507,75.927 120.4967,59.897 142.2017,44.515 C137.2737,54.571 139.5137,62.984 143.1977,73.438 M13.0697,184.599 C18.8437,184.301 21.1837,184.898 23.9717,188.482 C22.3287,190.772 19.2427,191.818 19.2427,191.818 C18.3457,186.491 16.9527,186.491 13.0697,184.599 M15.3597,63.332 C11.6257,64.925 2.7647,63.482 0.0767,56.114 C5.7017,62.038 11.6257,60.893 15.8567,59.051 C17.6497,58.404 21.2837,58.404 24.4697,58.454 C28.4517,58.504 32.1357,58.155 34.2267,61.441 C34.2267,61.441 26.9087,60.694 22.0297,63.233 C20.5367,62.138 17.6987,62.586 15.3597,63.332 M90.0807,203.018 C92.2217,198.389 93.6647,196.796 97.6977,196.099 C98.7927,198.339 98.2947,201.226 98.2947,201.226 C93.7647,199.683 93.1677,200.778 90.0807,203.018 M30.7917,175.738 C32.0357,172.851 33.1307,170.959 33.1307,170.959 C44.0337,174.643 56.2797,174.494 66.0367,172.254 C65.6387,174.444 65.1907,176.485 63.7467,178.028 C60.8097,177.58 59.3157,177.381 59.3157,177.381 C59.6647,180.169 59.0177,182.309 57.4737,183.902 C53.8397,181.513 51.9987,180.268 51.9987,180.268 C52.2967,182.309 52.1477,184.35 51.5007,186.391 C46.2737,183.703 44.8297,182.26 43.9337,182.807 L43.8837,182.757 C41.5937,185.794 37.9097,190.822 34.0277,196.696 C39.8517,199.733 43.4357,204.313 40.6977,209.739 C37.4617,201.873 34.4757,207.648 31.5377,205.557 C24.6187,200.529 25.5147,206.752 21.5817,207.748 C18.6947,207.2 16.5537,207.598 15.7077,212.925 C11.7257,208.245 13.3187,204.412 16.8027,200.629 C12.9697,200.579 12.3727,199.484 10.9787,197.542 C9.7837,194.605 9.1367,194.257 5.4527,193.162 C9.7837,190.225 12.0737,189.428 16.0067,192.664 C21.1337,197.194 30.6917,183.803 34.0277,177.68 L32.1357,176.684 C31.7377,176.435 31.2897,176.087 30.7917,175.738 M126.6207,136.909 C119.2527,140.792 115.3697,143.281 106.3097,149.255 C120.2487,179.372 160.2227,169.068 161.5667,136.063 C162.1137,123.219 154.0997,110.624 140.3097,106.094 C124.3307,101.863 106.5587,110.077 91.9227,116.051 C90.9767,116.449 90.0807,116.797 89.1847,117.146 C86.2477,117.544 85.7997,114.109 88.3887,113.114 C97.3487,109.728 102.6757,104.551 103.2227,98.428 C100.7337,98.876 95.0587,100.768 89.8817,101.017 C86.7957,100.718 87.3427,97.283 89.3337,96.984 C106.2097,93.151 116.7137,83.792 118.7047,69.704 C111.3377,74.085 101.3807,78.765 94.3617,79.81 C92.2717,80.158 90.7277,76.723 93.6647,75.678 C111.5867,71.397 124.6787,56.263 126.6207,35.306 C116.8137,46.506 105.4137,55.118 93.2167,60.246 C90.7777,60.893 89.6827,57.558 91.8727,56.413 C111.9847,42.524 127.1177,26.196 127.3667,6.333 C114.4237,17.384 95.6067,34.21 70.2677,52.829 C68.2267,54.322 66.5837,55.915 65.0407,57.309 C59.4657,62.536 58.7187,69.555 61.8547,74.832 C74.1507,88.87 68.5257,106.094 52.7947,113.064 C46.7717,106.443 45.3277,95.491 51.5507,80.507 C56.2297,70.302 59.5157,62.387 55.3337,52.779 C54.9357,51.833 54.4877,50.937 53.9897,50.091 C60.1627,48.099 64.1947,38.591 61.2077,31.572 C61.2077,30.427 56.8267,39.238 47.5177,39.836 C47.5177,39.836 38.7067,39.786 22.0297,39.786 C21.7317,40.931 20.2877,43.071 18.1967,44.266 C17.1017,44.913 16.2057,45.56 13.3677,45.56 C11.4267,45.511 9.7337,45.56 7.0957,45.56 C6.0507,53.924 13.9657,57.558 13.9657,57.558 C14.2147,55.268 16.1057,55.318 17.1017,55.218 C21.5817,55.268 25.1667,55.318 28.7507,55.268 C33.8277,55.417 38.2087,59.997 38.1587,64.527 C35.6697,62.884 32.1857,63.382 29.0987,64.079 C21.5817,66.618 20.1877,65.971 17.0017,64.179 C18.2967,68.858 20.6857,72.044 24.2207,73.637 C23.3247,72.193 24.5687,70.551 25.9627,70.501 L32.8827,70.501 C36.1177,71.098 35.2717,74.234 32.2847,77.868 C19.1927,93.948 2.5157,111.371 7.9417,137.456 C11.9737,156.722 36.5167,179.82 69.7697,166.778 C80.4727,166.529 84.9537,178.476 86.3477,181.363 C88.9357,179.87 88.9357,178.974 90.0307,179.173 C90.1807,179.223 90.5287,179.522 90.9267,179.97 C95.0087,185.495 100.7837,194.008 101.0827,199.534 C101.2317,201.923 99.1407,203.765 96.9507,204.263 C92.2217,206.005 91.8227,208.146 92.4207,212.775 C95.1587,210.336 95.7057,209.988 98.9417,210.237 C101.3317,209.938 103.6707,209.739 105.5627,206.752 C107.2557,211.083 109.8937,213.92 115.9667,212.726 C111.6357,209.838 112.3327,207.996 114.1247,205.955 C115.0707,202.471 109.1467,200.579 116.8627,197.244 C120.1487,195.85 116.6137,189.727 125.1267,190.424 C121.5927,186.043 116.4647,186.242 111.0387,191.121 C107.5047,185.396 103.2227,178.576 100.5847,174.295 C101.6797,173.598 103.4227,172.552 105.8117,170.561 C104.2187,169.117 101.8787,167.723 99.8877,167.176 C99.8877,167.176 101.5807,165.682 105.2637,163.293 C104.4677,161.252 103.0237,160.804 100.3357,160.007 C100.3357,160.007 100.7337,158.813 103.0737,156.921 C101.9287,154.283 98.3947,151.694 105.7117,145.77 C113.2287,140.543 128.5617,131.134 131.8477,132.677 C135.5807,134.47 134.0877,138.203 132.2957,139.448 C129.5077,140.792 127.1177,139.448 126.6207,136.909" id="Fill-1" mask="url(#mask-2)"></path>
            </g>
        </g>
    </g>
</svg>