<svg id="aa3b9336-33b0-4d4c-9220-75620063194e" data-name="Слой 1" xmlns="http://www.w3.org/2000/svg" xmlns:xlink="http://www.w3.org/1999/xlink" viewBox="0 0 349 349.2">
  <defs>
    <radialGradient id="bd84459f-9e40-4d4a-8819-311a30ef97b6" data-name="Безымянный градиент 45" cx="-996.34" cy="2.42" r="1" gradientTransform="translate(161869.3 -219.2) scale(162.29 162.27)" gradientUnits="userSpaceOnUse">
      <stop offset="0" stop-color="#696969"/>
      <stop offset="1" stop-color="#696969"/>
    </radialGradient>
    <radialGradient id="a59a1926-8f17-4120-bba0-4679fe173287" data-name="Безымянный градиент 27" cx="-969.57" cy="13.87" r="1" gradientTransform="translate(27646.5 -234.9) scale(28.34 28.33)" gradientUnits="userSpaceOnUse">
      <stop offset="0" stop-color="#696969"/>
      <stop offset="0.61" stop-color="#696969"/>
    </radialGradient>
    <radialGradient id="e5155210-c513-45f8-9d67-426400305ad6" data-name="Безымянный градиент 39" cx="-996.34" cy="2.42" xlink:href="#bd84459f-9e40-4d4a-8819-311a30ef97b6"/>
  </defs>
  <g id="e1be1bfb-cda9-4b6c-8f63-d3f079dc3edc" data-name="top-left">
    <path d="M130.6,90.8A95.1,95.1,0,0,0,90.4,131a20.9,20.9,0,0,1-7.7,8.2,20.7,20.7,0,0,1-10.8,3H0a14,14,0,0,0,14,14H141.2A38,38,0,0,1,156,141.5V14A14,14,0,0,0,142,0V71.9A21.8,21.8,0,0,1,139,83,21.1,21.1,0,0,1,130.6,90.8Z" fill="url(#bd84459f-9e40-4d4a-8819-311a30ef97b6)"/>
  </g>
  <g id="b663395d-941b-4691-bd50-d54adf95a09d" data-name="circle">
    <path d="M174.4,200.8a26,26,0,1,0-26-26A25.9,25.9,0,0,0,174.4,200.8Z" fill="url(#a59a1926-8f17-4120-bba0-4679fe173287)"/>
  </g>
  <g id="a106e515-c740-4d4f-a0a2-6c1d5d1b59ec" data-name="bottom-right">
    <path d="M210.6,193.2h-3a37.8,37.8,0,0,1-14.7,14.7V335.2a14,14,0,0,0,14,14V277.3a21.7,21.7,0,0,1,3-10.8,20.9,20.9,0,0,1,8.2-7.7,95.1,95.1,0,0,0,40.2-40.2,20.7,20.7,0,0,1,7.6-8.2,20.5,20.5,0,0,1,10.8-3h71.9a14,14,0,0,0-14-14Z" fill="url(#bd84459f-9e40-4d4a-8819-311a30ef97b6)"/>
  </g>
  <g id="bb513e65-5f44-4cd0-a514-3c33ef935ca6" data-name="bottom-left">
    <path d="M141.2,193.3H14a14,14,0,0,0-14,14H71.9a21.7,21.7,0,0,1,10.8,3,20.9,20.9,0,0,1,7.7,8.2,95.1,95.1,0,0,0,40.2,40.2,20.7,20.7,0,0,1,8.1,7.7,21.8,21.8,0,0,1,3.1,10.8v71.9a14,14,0,0,0,14-14v-127A38.4,38.4,0,0,1,141.2,193.3Z" fill="url(#e5155210-c513-45f8-9d67-426400305ad6)"/>
  </g>
  <g id="a7801884-da03-4aaf-8a99-e5a0e171d4d0" data-name="top-right">
    <path d="M258.5,131a95.1,95.1,0,0,0-40.2-40.2,20.9,20.9,0,0,1-8.2-7.7,20.7,20.7,0,0,1-3-10.8V.4a14,14,0,0,0-14,14V141.7a37.8,37.8,0,0,1,14.7,14.7H335a14,14,0,0,0,14-14H277.1a20,20,0,0,1-10.9-3.1A19.3,19.3,0,0,1,258.5,131Z" fill="url(#bd84459f-9e40-4d4a-8819-311a30ef97b6)"/>
  </g>
</svg>
