<?xml version="1.0" encoding="utf-8" ?>
<!-- Generator: Adobe Illustrator 24.1.3, SVG Export Plug-In . SVG Version: 6.00 Build 0)  -->
<svg
  version="1.1"
  id="Слой_1"
  xmlns="http://www.w3.org/2000/svg"
  xmlns:xlink="http://www.w3.org/1999/xlink"
  x="0px"
  y="0px"
  viewBox="0 0 349 349.2"
  style="enable-background:new 0 0 349 349.2;"
  xml:space="preserve"
>
<style type="text/css">
	.st0{fill:url(#SVGID_1_);}
	.st1{fill:url(#SVGID_2_);}
	.st2{fill:url(#SVGID_3_);}
	.st3{fill:url(#SVGID_4_);}
	.st4{fill:url(#SVGID_5_);}
</style>
<radialGradient
    id="SVGID_1_"
    cx="-479.4958"
    cy="553.4707"
    r="1"
    gradientTransform="matrix(28.3367 0 0 -28.3337 13759.4775 15840.0029)"
    gradientUnits="userSpaceOnUse"
  >
	<stop offset="0" style="stop-color:#4388BA" />
	<stop offset="0.61" style="stop-color:#1F274A" />
</radialGradient>
<path
    class="st0"
    d="M174.4,200.8c14.4,0,26-11.6,26-26c0-14.3-11.6-26-26-26c-14.4,0-26,11.6-26,26
	C148.4,189.2,160,200.8,174.4,200.8z"
  />
<radialGradient
    id="SVGID_2_"
    cx="-491.4675"
    cy="558.86"
    r="1"
    gradientTransform="matrix(162.292 0 0 -162.275 79932.9531 90862.8047)"
    gradientUnits="userSpaceOnUse"
  >
	<stop offset="0" style="stop-color:#4388BA" />
	<stop offset="1" style="stop-color:#1F274A" />
</radialGradient>
<path
    class="st1"
    d="M130.6,90.8c-17.2,9-31.2,23-40.2,40.2c-1.8,3.4-4.4,6.2-7.7,8.2c-3.3,2-7,3-10.8,3H0c0,3.7,1.5,7.3,4.1,9.9
	c2.6,2.6,6.2,4.1,9.9,4.1h127.2c3.5-6.2,8.6-11.3,14.8-14.7V14c0-3.7-1.5-7.3-4.1-9.9C149.3,1.5,145.7,0,142,0v71.9
	c0,3.9-1,7.7-3,11.1C137,86.3,134.1,89,130.6,90.8z"
  />
<radialGradient
    id="SVGID_3_"
    cx="-491.4675"
    cy="558.86"
    r="1"
    gradientTransform="matrix(162.292 0 0 -162.275 79932.9531 90862.8047)"
    gradientUnits="userSpaceOnUse"
  >
	<stop offset="0" style="stop-color:#4388BA" />
	<stop offset="1" style="stop-color:#1F274A" />
</radialGradient>
<path
    class="st2"
    d="M258.5,131c-9-17.2-23-31.2-40.2-40.2c-3.4-1.8-6.2-4.4-8.2-7.7c-2-3.3-3-7-3-10.8V0.4c-3.7,0-7.3,1.5-9.9,4.1
	c-2.6,2.6-4.1,6.2-4.1,9.9v127.3c6.2,3.4,11.2,8.5,14.7,14.7H335c3.7,0,7.3-1.5,9.9-4.1c2.6-2.6,4.1-6.2,4.1-9.9h-71.9
	c-3.9,0-7.6-1-10.9-3.1C262.9,137.4,260.2,134.5,258.5,131z"
  />
<radialGradient
    id="SVGID_4_"
    cx="-491.4675"
    cy="558.86"
    r="1"
    gradientTransform="matrix(162.292 0 0 -162.275 79932.9531 90862.8047)"
    gradientUnits="userSpaceOnUse"
  >
	<stop offset="0" style="stop-color:#4388BA" />
	<stop offset="1" style="stop-color:#1F274A" />
</radialGradient>
<path
    class="st3"
    d="M141.2,193.2H14c-3.7,0-7.3,1.5-9.9,4.1c-2.6,2.6-4.1,6.2-4.1,9.9h71.9c3.8,0,7.5,1.1,10.8,3
	c3.3,2,5.9,4.8,7.7,8.2c9,17.2,23,31.2,40.2,40.2c3.4,1.8,6.2,4.5,8.1,7.7c2,3.3,3,7,3.1,10.8V349c3.7,0,7.3-1.5,9.9-4.1
	c2.6-2.6,4.1-6.2,4.1-9.9V208C149.7,204.5,144.6,199.4,141.2,193.2z"
  />
<radialGradient
    id="SVGID_5_"
    cx="-491.4675"
    cy="558.86"
    r="1"
    gradientTransform="matrix(162.292 0 0 -162.275 79932.9531 90862.8047)"
    gradientUnits="userSpaceOnUse"
  >
	<stop offset="0" style="stop-color:#4388BA" />
	<stop offset="1" style="stop-color:#1F274A" />
</radialGradient>
<path
    class="st4"
    d="M210.6,193.2h-3c-3.4,6.2-8.5,11.2-14.7,14.7v127.3c0,3.7,1.5,7.3,4.1,9.9c2.6,2.6,6.2,4.1,9.9,4.1v-71.9
	c0-3.8,1.1-7.5,3-10.8c2-3.3,4.8-5.9,8.2-7.7c17.2-9,31.2-23,40.2-40.2c1.7-3.4,4.4-6.2,7.6-8.2c3.2-2,7-3,10.8-3h71.9
	c0-3.7-1.5-7.3-4.1-9.9c-2.6-2.6-6.2-4.1-9.9-4.1L210.6,193.2z"
  />
</svg>
